HIERARCHY
ROOT pelvis
{
	OFFSET -20.459700 -3.402440 102.818000
	CHANNELS 6 Xposition Yposition Zposition Zrotation Yrotation Xrotation 
	JOINT spine_01
	{
		OFFSET 2.595450 0.208490 0.000000
		CHANNELS 3 Zrotation Yrotation Xrotation
		JOINT spine_02
		{
			OFFSET 4.877290 -0.954006 0.022121
			CHANNELS 3 Zrotation Yrotation Xrotation
			JOINT spine_03
			{
				OFFSET 6.297470 0.000308 -0.000423
				CHANNELS 3 Zrotation Yrotation Xrotation
				JOINT spine_04
				{
					OFFSET 6.663410 -0.000045 0.000068
					CHANNELS 3 Zrotation Yrotation Xrotation
					JOINT spine_05
					{
						OFFSET 13.137500 0.000042 0.000127
						CHANNELS 3 Zrotation Yrotation Xrotation
						JOINT neck_01
						{
							OFFSET 13.870200 -0.000043 0.000048
							CHANNELS 3 Zrotation Yrotation Xrotation
							JOINT neck_02
							{
								OFFSET 4.295250 0.000000 0.000045
								CHANNELS 3 Zrotation Yrotation Xrotation
								JOINT head
								{
									OFFSET 4.491710 0.000740 0.001639
									CHANNELS 3 Zrotation Yrotation Xrotation
									End Site
									{
										OFFSET 0.000000 0.000000 0.000000
									}
								}
							}
						}
						JOINT clavicle_l
						{
							OFFSET 8.029550 0.614939 -0.570049
							CHANNELS 3 Zrotation Yrotation Xrotation
							JOINT upperarm_l
							{
								OFFSET 10.136200 0.000000 0.000032
								CHANNELS 3 Zrotation Yrotation Xrotation
								JOINT lowerarm_l
								{
									OFFSET 28.731500 0.000017 0.000177
									CHANNELS 3 Zrotation Yrotation Xrotation
									JOINT hand_l
									{
										OFFSET 24.762400 0.000000 0.000000
										CHANNELS 3 Zrotation Yrotation Xrotation
										JOINT thumb_01_l
										{
											OFFSET 1.645750 1.668330 -1.524320
											CHANNELS 3 Zrotation Yrotation Xrotation
											JOINT thumb_02_l
											{
												OFFSET 4.551640 0.000000 0.000000
												CHANNELS 3 Zrotation Yrotation Xrotation
												JOINT thumb_03_l
												{
													OFFSET 2.644270 0.000000 0.000000
													CHANNELS 3 Zrotation Yrotation Xrotation
													End Site
													{
														OFFSET 0.000000 0.000000 0.000000
													}
												}
											}
										}
										JOINT index_metacarpal_l
										{
											OFFSET 3.005770 0.596985 -1.772920
											CHANNELS 3 Zrotation Yrotation Xrotation
											JOINT index_01_l
											{
												OFFSET 4.688790 0.000000 0.000000
												CHANNELS 3 Zrotation Yrotation Xrotation
												JOINT index_02_l
												{
													OFFSET 4.383510 0.000000 0.000000
													CHANNELS 3 Zrotation Yrotation Xrotation
													JOINT index_03_l
													{
														OFFSET 1.965240 0.000000 0.000000
														CHANNELS 3 Zrotation Yrotation Xrotation
														End Site
														{
															OFFSET 0.000000 0.000000 0.000000
														}
													}
												}
											}
										}
										JOINT middle_metacarpal_l
										{
											OFFSET 2.804600 0.096878 -0.451881
											CHANNELS 3 Zrotation Yrotation Xrotation
											JOINT middle_01_l
											{
												OFFSET 5.012010 0.000000 0.000000
												CHANNELS 3 Zrotation Yrotation Xrotation
												JOINT middle_02_l
												{
													OFFSET 4.395510 0.000000 0.000000
													CHANNELS 3 Zrotation Yrotation Xrotation
													JOINT middle_03_l
													{
														OFFSET 2.842500 0.000000 0.000000
														CHANNELS 3 Zrotation Yrotation Xrotation
														End Site
														{
															OFFSET 0.000000 0.000000 0.000000
														}
													}
												}
											}
										}
										JOINT ring_metacarpal_l
										{
											OFFSET 2.852190 -0.096878 0.451885
											CHANNELS 3 Zrotation Yrotation Xrotation
											JOINT ring_01_l
											{
												OFFSET 4.533700 0.000000 0.000000
												CHANNELS 3 Zrotation Yrotation Xrotation
												JOINT ring_02_l
												{
													OFFSET 3.768560 0.000000 0.000000
													CHANNELS 3 Zrotation Yrotation Xrotation
													JOINT ring_03_l
													{
														OFFSET 3.036250 0.000000 0.000000
														CHANNELS 3 Zrotation Yrotation Xrotation
														End Site
														{
															OFFSET 0.000000 0.000000 0.000000
														}
													}
												}
											}
										}
										JOINT pinky_metacarpal_l
										{
											OFFSET 2.818930 -0.276169 1.463940
											CHANNELS 3 Zrotation Yrotation Xrotation
											JOINT pinky_01_l
											{
												OFFSET 4.238140 0.000000 0.000000
												CHANNELS 3 Zrotation Yrotation Xrotation
												JOINT pinky_02_l
												{
													OFFSET 2.504320 0.000000 0.000000
													CHANNELS 3 Zrotation Yrotation Xrotation
													JOINT pinky_03_l
													{
														OFFSET 1.820020 0.000000 0.000000
														CHANNELS 3 Zrotation Yrotation Xrotation
														End Site
														{
															OFFSET 0.000000 0.000000 0.000000
														}
													}
												}
											}
										}
									}
								}
							}
						}
						JOINT clavicle_r
						{
							OFFSET 8.029690 0.615852 0.570123
							CHANNELS 3 Zrotation Yrotation Xrotation
							JOINT upperarm_r
							{
								OFFSET -10.135000 -0.002579 -0.000361
								CHANNELS 3 Zrotation Yrotation Xrotation
								JOINT lowerarm_r
								{
									OFFSET -28.732900 0.001365 0.005621
									CHANNELS 3 Zrotation Yrotation Xrotation
									JOINT hand_r
									{
										OFFSET -24.764600 -0.001016 0.000179
										CHANNELS 3 Zrotation Yrotation Xrotation
										JOINT thumb_01_r
										{
											OFFSET -1.923320 -1.572070 1.284710
											CHANNELS 3 Zrotation Yrotation Xrotation
											JOINT thumb_02_r
											{
												OFFSET -4.550090 0.000000 0.000000
												CHANNELS 3 Zrotation Yrotation Xrotation
												JOINT thumb_03_r
												{
													OFFSET -2.644480 0.000000 0.000000
													CHANNELS 3 Zrotation Yrotation Xrotation
													End Site
													{
														OFFSET 0.000000 0.000000 0.000000
													}
												}
											}
										}
										JOINT index_metacarpal_r
										{
											OFFSET -3.268700 -0.454758 1.283810
											CHANNELS 3 Zrotation Yrotation Xrotation
											JOINT index_01_r
											{
												OFFSET -4.687710 0.000000 0.000000
												CHANNELS 3 Zrotation Yrotation Xrotation
												JOINT index_02_r
												{
													OFFSET -4.381770 0.000000 0.000000
													CHANNELS 3 Zrotation Yrotation Xrotation
													JOINT index_03_r
													{
														OFFSET -1.966530 0.000000 0.000000
														CHANNELS 3 Zrotation Yrotation Xrotation
														End Site
														{
															OFFSET 0.000000 0.000000 0.000000
														}
													}
												}
											}
										}
										JOINT middle_metacarpal_r
										{
											OFFSET -2.840320 0.000000 0.000000
											CHANNELS 3 Zrotation Yrotation Xrotation
											JOINT middle_01_r
											{
												OFFSET -5.011120 0.000000 0.000000
												CHANNELS 3 Zrotation Yrotation Xrotation
												JOINT middle_02_r
												{
													OFFSET -4.393970 0.000000 0.000000
													CHANNELS 3 Zrotation Yrotation Xrotation
													JOINT middle_03_r
													{
														OFFSET -2.845580 0.000000 0.000000
														CHANNELS 3 Zrotation Yrotation Xrotation
														End Site
														{
															OFFSET 0.000000 0.000000 0.000000
														}
													}
												}
											}
										}
										JOINT ring_metacarpal_r
										{
											OFFSET -2.735520 0.168312 -0.904747
											CHANNELS 3 Zrotation Yrotation Xrotation
											JOINT ring_01_r
											{
												OFFSET -4.532910 0.000000 0.000000
												CHANNELS 3 Zrotation Yrotation Xrotation
												JOINT ring_02_r
												{
													OFFSET -3.768440 0.000000 0.000000
													CHANNELS 3 Zrotation Yrotation Xrotation
													JOINT ring_03_r
													{
														OFFSET -3.036350 0.000000 0.000000
														CHANNELS 3 Zrotation Yrotation Xrotation
														End Site
														{
															OFFSET 0.000000 0.000000 0.000000
														}
													}
												}
											}
										}
										JOINT pinky_metacarpal_r
										{
											OFFSET -2.535800 0.313965 -1.904450
											CHANNELS 3 Zrotation Yrotation Xrotation
											JOINT pinky_01_r
											{
												OFFSET -4.232780 0.000000 0.000000
												CHANNELS 3 Zrotation Yrotation Xrotation
												JOINT pinky_02_r
												{
													OFFSET -2.504480 0.000000 0.000000
													CHANNELS 3 Zrotation Yrotation Xrotation
													JOINT pinky_03_r
													{
														OFFSET -1.821450 0.000000 0.000000
														CHANNELS 3 Zrotation Yrotation Xrotation
														End Site
														{
															OFFSET 0.000000 0.000000 0.000000
														}
													}
												}
											}
										}
									}
								}
							}
						}
					}
				}
			}
		}
	}
	JOINT thigh_l
	{
		OFFSET -2.313150 -0.051123 -9.310610
		CHANNELS 3 Zrotation Yrotation Xrotation
		JOINT calf_l
		{
			OFFSET -46.661800 -0.000912 -0.000026
			CHANNELS 3 Zrotation Yrotation Xrotation
			JOINT foot_l
			{
				OFFSET -44.414400 0.000097 0.000114
				CHANNELS 3 Zrotation Yrotation Xrotation
				JOINT ball_l
				{
					OFFSET -6.514580 -12.708700 -0.433235
					CHANNELS 3 Zrotation Yrotation Xrotation
					End Site
					{
						OFFSET 0.000000 0.000000 0.000000
					}
				}
			}
		}
	}
	JOINT thigh_r
	{
		OFFSET -2.313340 -0.050603 9.310440
		CHANNELS 3 Zrotation Yrotation Xrotation
		JOINT calf_r
		{
			OFFSET 46.659400 0.000796 0.000019
			CHANNELS 3 Zrotation Yrotation Xrotation
			JOINT foot_r
			{
				OFFSET 44.424700 0.000030 0.000094
				CHANNELS 3 Zrotation Yrotation Xrotation
				JOINT ball_r
				{
					OFFSET 6.504510 12.709200 0.435689
					CHANNELS 3 Zrotation Yrotation Xrotation
					End Site
					{
						OFFSET 0.000000 0.000000 0.000000
					}
				}
			}
		}
	}
}
MOTION
Frames: 4
Frame Time: 0.050000
0.008999 102.001129 0.013659 87.120758 5.190613 -100.505760 -11.687637 0.341492 -0.583878 5.841492 0.818893 -1.076553 8.026535 0.985794 -0.926529 7.053711 1.112000 -0.770050 -3.011993 1.091003 -0.799500 -24.251984 -2.724991 -0.718994 -0.192062 -2.713318 -0.761963 11.231903 -8.349762 -2.854156 115.782593 79.438141 137.836182 -40.756317 68.395401 -18.624557 -79.094101 -39.292313 11.506180 31.826614 -15.201355 -163.707413 12.825317 37.493683 80.396210 40.363205 -8.604721 2.409225 13.270905 -1.390671 0.348328 0.000000 6.000000 8.000000 19.424225 1.055679 -2.804001 28.304947 0.834366 -2.235962 7.102051 0.197021 -0.377090 -5.000000 -1.000015 0.800003 92.941895 -17.270920 -19.765350 121.338837 -2.138245 -34.225906 70.789337 -5.857071 -23.598495 0.000000 -12.000000 -2.000000 74.455292 -12.885635 -8.332397 116.027435 -7.557434 -24.885605 61.237747 -8.624191 -12.030838 12.000000 -20.000000 -10.000000 67.704712 -11.869812 -2.595856 81.965851 -15.457458 -9.217102 38.738602 -9.464172 -2.210327 -46.314392 72.557083 152.013672 -46.888107 54.436707 -6.634155 -90.829201 2.729309 -1.686493 13.111664 -3.204926 -138.876190 27.100433 30.829834 82.694824 47.486893 -17.467026 2.933960 18.277512 -5.254608 0.877548 0.000000 6.000000 8.000015 63.340546 -15.351242 -13.753860 51.266876 -9.690552 -15.141556 21.607742 -6.063232 -8.035629 -5.000000 -1.000015 0.800034 26.629974 -0.461288 -0.368561 30.199829 -3.125015 -2.486221 10.400497 -2.612045 -1.791092 0.000000 -12.000000 -2.000000 45.030579 -8.902008 -1.265182 70.945343 -15.154007 -19.586868 29.336884 -8.778091 -8.518906 12.000000 -20.000000 -10.000000 38.605911 -8.949249 0.952560 51.624680 -14.868423 -8.527466 17.725632 -6.445511 -2.859024 -8.914932 2.048569 6.279999 -1.782288 0.002609 -0.096466 0.437057 0.901917 19.340668 -89.999996 0.000000 0.000000 173.160645 2.733994 -6.527954 -4.277237 -0.004028 -0.058182 -1.890350 2.203659 0.235657 -89.999996 0.000000 0.000000 
0.009309 102.001144 0.013555 87.087585 5.177536 -100.430191 -11.707504 0.367142 -0.554138 5.801941 0.862457 -1.011505 7.987274 1.018005 -0.855179 7.014679 1.133286 -0.694702 -3.051056 1.114288 -0.724747 -24.229980 -2.753830 -0.857849 -0.170044 -2.739944 -0.901245 11.417908 -8.811081 -3.186554 116.603333 79.466583 138.669922 -40.415344 68.780853 -18.645676 -78.700508 -38.945862 9.726227 32.032043 -13.576675 -166.266083 12.825317 37.493683 80.396210 40.084076 -8.476547 2.407379 12.847931 -1.209549 0.307907 0.000000 6.000000 8.000000 18.067001 2.093826 -2.423172 25.431854 1.519958 -1.321320 5.258118 0.645889 0.280029 -5.000000 -1.000015 0.800003 89.165009 -17.036469 -18.687469 118.107178 -2.905869 -33.345734 68.563446 -6.069885 -22.796402 0.000000 -12.000000 -2.000000 69.205231 -11.712601 -6.358337 109.993866 -8.607986 -23.349670 56.791687 -8.516296 -10.923874 12.000000 -20.000000 -10.000000 61.632874 -10.171738 -0.337158 74.691437 -14.811432 -7.741394 33.649002 -8.384811 -1.761612 -46.156769 72.608093 152.201660 -44.154892 54.979233 -5.875595 -88.386650 1.250229 -2.517502 12.825104 -2.230408 -140.562546 25.420319 32.021774 81.893066 49.576157 -18.752777 2.925568 17.189804 -4.564346 0.777740 0.000000 6.000000 8.000015 59.472427 -14.555069 -12.865967 50.247574 -9.516403 -14.520981 20.964005 -5.887497 -7.660904 -5.000000 -1.000015 0.800034 25.453110 0.303162 -0.127625 29.201981 -2.701675 -2.003494 9.738007 -2.346558 -1.462830 0.000000 -12.000000 -2.000000 42.182892 -7.335175 -0.195633 65.703308 -14.974274 -16.833527 25.638626 -8.032440 -6.995956 12.000000 -20.000000 -10.000000 34.365234 -7.535324 1.554337 46.635818 -13.704788 -6.849579 14.248825 -5.247269 -2.200485 -8.889175 2.017960 6.323547 -1.793106 0.002197 -0.097046 0.434555 0.857895 19.229416 -89.999996 0.000000 0.000000 173.156921 2.760117 -6.527939 -4.245117 -0.004013 -0.058380 -1.912262 2.258270 0.298218 -89.999996 0.000000 0.000000 
0.009552 102.001167 0.013406 87.059509 5.156433 -100.339294 -11.730423 0.395111 -0.523926 5.756302 0.910507 -0.944977 7.941940 1.054413 -0.781616 6.969574 1.158371 -0.616547 -3.096207 1.141449 -0.647293 -24.186462 -2.771057 -0.985901 -0.126541 -2.755127 -1.029556 11.664902 -9.360229 -3.494873 117.484467 79.494965 139.547241 -40.139999 69.057648 -18.738693 -78.100357 -38.743164 7.904724 32.136917 -12.042923 -168.608719 12.825317 37.493683 80.396210 40.110657 -8.483658 2.414764 12.478851 -1.051514 0.272308 0.000000 6.000000 8.000000 17.167358 3.090622 -2.087677 23.252853 2.054718 -0.636551 3.856003 0.994537 0.775467 -5.000000 -1.000015 0.800003 84.714966 -16.681717 -17.344681 114.074463 -3.817352 -32.146240 65.802460 -6.308060 -21.773849 0.000000 -12.000000 -2.000000 64.095230 -10.420792 -4.469589 103.861908 -9.556503 -21.643845 52.303177 -8.348221 -9.785751 12.000000 -20.000000 -10.000000 55.882446 -8.347229 1.728012 67.547455 -14.010696 -6.275970 28.639267 -7.275391 -1.350845 -46.058426 72.681412 152.323944 -41.723404 55.609558 -5.428757 -86.053535 -0.320511 -3.393188 12.745804 -1.568222 -142.515503 23.996994 33.004074 81.250183 50.993530 -19.603302 2.917282 15.920090 -3.757797 0.656769 0.000000 6.000000 8.000015 55.308807 -13.665695 -11.944977 49.784439 -9.415451 -14.248932 20.672134 -5.798370 -7.495544 -5.000000 -1.000015 0.800034 24.708145 0.827759 0.027695 28.734253 -2.501068 -1.776352 9.426819 -2.221146 -1.308289 0.000000 -12.000000 -2.000000 39.749191 -6.001511 0.579941 61.307831 -14.628113 -14.539337 22.548126 -7.327286 -5.759781 12.000000 -20.000000 -10.000000 30.691559 -6.450821 1.796051 42.368103 -12.593277 -5.468307 11.247894 -4.179993 -1.677719 -8.857590 1.983475 6.375839 -1.789581 0.001785 -0.097992 0.423630 0.819382 19.094864 -89.999996 0.000000 0.000000 173.159271 2.789810 -6.530212 -4.202896 -0.004074 -0.058945 -1.941147 2.314362 0.377487 -89.999996 0.000000 0.000000 
0.009700 102.001213 0.013201 87.033813 5.124344 -100.248299 -11.755966 0.422729 -0.493240 5.705399 0.957764 -0.877625 7.891312 1.089905 -0.707382 6.919159 1.182449 -0.537872 -3.146652 1.167618 -0.569290 -24.120865 -2.767685 -1.094696 -0.060974 -2.750015 -1.138275 11.970749 -9.926712 -3.756500 118.396729 79.515320 140.436584 -39.931549 69.220505 -18.914688 -77.420929 -38.684067 6.175079 32.150253 -10.640854 -170.636932 12.825317 37.493683 80.396210 40.362503 -8.591217 2.428986 12.185379 -0.925888 0.243713 0.000000 6.000000 8.000000 16.682343 4.005875 -1.803528 21.759033 2.431885 -0.175705 2.891342 1.239761 1.112656 -5.000000 -1.000015 0.800003 79.881439 -16.206985 -15.826324 109.442902 -4.800095 -30.657135 62.648346 -6.546249 -20.575974 0.000000 -12.000000 -2.000000 59.407578 -9.099899 -2.780029 98.003998 -10.342224 -19.891922 48.040680 -8.131760 -8.691483 12.000000 -20.000000 -10.000000 50.799255 -6.547455 3.472183 61.034775 -13.135529 -4.938309 24.051895 -6.221390 -1.006378 -46.073532 72.776703 152.326233 -39.622086 56.360138 -5.342361 -83.962639 -1.981583 -4.254532 12.912598 -1.232742 -144.716858 22.863373 33.766968 80.790802 51.674789 -19.993393 2.922440 14.600998 -2.919312 0.525620 0.000000 6.000000 8.000015 50.886581 -12.661224 -10.978180 49.577881 -9.354202 -14.141068 20.543701 -5.751495 -7.427933 -5.000000 -1.000015 0.800034 24.287872 1.178757 0.125320 28.620819 -2.453079 -1.719070 9.351410 -2.191269 -1.269958 0.000000 -12.000000 -2.000000 37.625107 -4.897644 1.108200 57.652039 -14.188232 -12.674927 19.981506 -6.677917 -4.773270 12.000000 -20.000000 -10.000000 27.625381 -5.661072 1.787766 38.825333 -11.586304 -4.380005 8.734329 -3.263153 -1.281723 -8.821152 1.945679 6.443008 -1.768295 0.001373 -0.099365 0.403870 0.786072 18.945984 -89.999996 0.000000 0.000000 173.170197 2.823135 -6.540070 -4.150436 -0.004196 -0.059952 -1.979828 2.370956 0.464020 -89.999996 0.000000 0.000000 
